<svg xmlns="http://www.w3.org/2000/svg" xmlns:xlink="http://www.w3.org/1999/xlink" id="Layer_1" x="0" y="0" version="1.1" viewBox="0 0 725 725" style="enable-background:new 0 0 725 725" xml:space="preserve"><style type="text/css">.st0{fill:#2c4369}.st1{fill:#1c2f52}.st2{fill:#0a1939}.st3{fill:#0f1f40}.st4{fill:#1d3154}.st5{fill:#162849}.st6{fill:#3f5a84}.st7{fill:#324a71}.st8{fill:#39537c}.st9{fill:#46638f}.st10{fill:#51719e}.st11{fill:#86b2ea}.st12{fill:#81abe2}.st13{fill:#78a0d6}.st14{fill:#769ed3}.st15{fill:#7096ca}.st16{fill:#6589bb}.st17{fill:#52719f}.st18{fill:#4a6894}.st19{fill:#3d5882}.st20{fill:#2e466d}.st21{fill:#1f3356}.st22{fill:#16284a}.st23{fill:#486591}.st24{fill:#4f6e9b}.st25{fill:#89b5ed}.st26{fill:#85b0e8}.st27{fill:#82ade4}.st28{fill:#7da6dc}.st29{fill:#749bd0}.st30{fill:#7097cb}.st31{fill:#6184b5}.st32{fill:#6386b8}.st33{fill:#102142}.st34{fill:#0a1a39}.st35{fill:#081736}.st36{fill:#0e1f3f}.st37{fill:#21365a}.st38{fill:#5676a5}.st39{fill:#87b3ec}.st40{fill:#6c92c5}.st41{fill:#5373a1}.st42{fill:#435f8a}.st43{fill:#425e89}.st44{fill:#30476e}.st45{fill:#142547}.st46{fill:#0b1a3a}.st47{fill:#5d7faf}.st48{fill:#769dd3}.st49{fill:#7ea8df}.st50{fill:#091837}.st51{fill:#2f466d}.st52{fill:#263c61}.st53{fill:#1d3053}.st54{fill:#4b6995}.st55{fill:#364f77}.st56{fill:#2a4166}.st57{fill:#5b7dad}.st58{fill:#88b4ed}.st59{fill:#6f96ca}.st60{fill:#7ba4db}.st61{fill:#415d88}.st62{fill:#3c5781}.st63{fill:#3a547d}.st64{fill:#4d6b98}.st65{fill:#44608b}.st66{fill:#3e5983}.st67{fill:#365078}.st68{fill:#405b85}.st69{fill:#30486f}.st70{fill:#122445}.st71{fill:#83aee6}.st72{fill:#496793}.st73{fill:#6a8fc1}.st74{fill:#273c62}.st75{fill:#7fa8df}.st76{fill:#7ca5db}.st77{fill:#5f82b2}.st78{fill:#5778a7}.st79{fill:#203458}.st80{fill:#102141}.st81{fill:#091938}.st82{fill:#5e80b0}.st83{fill:#6e94c7}.st84{fill:#749bcf}.st85{fill:#182a4c}.st86{fill:#0b1b3b}.st87{fill:none;stroke:#fff;stroke-width:5}.st88,.st89{fill:none;stroke:snow;stroke-width:2;stroke-linecap:square}.st89{stroke:#fff}</style><title>logo</title><desc>Created with Sketch.</desc><g id="Page-1"><g id="TempLogo" transform="translate(-42.000000, -24.000000)"><g id="Group-3" transform="translate(47.000000, 28.000000)"><polygon id="Line" points="416.4 365.7 437.8 462.1 500.6 404.2" class="st0"/><polygon id="Line_1_" points="438.5 462.5 415.9 527.7 415.9 364.9" class="st1"/><polygon id="Line_2_" points="437.9 462.4 416.3 527.8 500.8 527.8" class="st2"/><polygon id="Line_3_" points="438 462.2 478.5 464.8 500.4 527.3" class="st3"/><polygon id="Line_4_" points="500.1 404.6 478.5 464.9 438.1 462.2" class="st4"/><polygon id="Line_5_" points="478.5 464.5 501.1 527.5 501.1 404" class="st5"/><polygon id="Line_6_" points="501.9 327.2 500.6 403.6 546.8 387.7" class="st6"/><polygon id="Line_7_" points="547 387.5 500.6 403.8 621 403.8" class="st7"/><polygon id="Line_8_" points="570 359.8 546.5 387.6 621.9 403.4" class="st8"/><polygon id="Line_9_" points="501 327.1 547.6 387.2 569.6 359.5" class="st9"/><polygon id="Line_10_" points="500.3 326.5 556.5 326.5 569.6 359.6" class="st10"/><polygon id="Line_11_" points="621.7 326.5 569.5 359.5 556.4 326.5" class="st10"/><polygon id="Line_12_" points="622.6 190 686.4 245.1 714.6 190" class="st11"/><polygon id="Line_13_" points="686.5 244.5 646.7 250.6 622.3 190.8" class="st12"/><polygon id="Line_14_" points="714.5 190.5 686 245.6 715.1 315" class="st13"/><polygon id="Line_15_" points="646.4 250.9 621.5 326.5 621.5 190.3" class="st14"/><polygon id="Line_16_" points="685.5 244.5 646.5 250.5 622.3 326.1" class="st15"/><polygon id="Line_17_" points="715.2 315.4 686.4 244.9 621.9 326.9" class="st16"/><polygon id="Line_18_" points="714.8 315.5 621.7 327.5 694.7 362.5" class="st17"/><polygon id="Line_19_" points="621.5 327.5 570.5 359.3 694.6 362.7" class="st18"/><polygon id="Line_20_" points="569.2 359.1 693.5 362.5 622.5 404.6" class="st19"/><polygon id="Line_21_" points="714.5 316.5 694.3 362.9 715.3 449.5" class="st19"/><polygon id="Line_22_" points="694.5 362.5 715 450.4 623.2 404" class="st20"/><polygon id="Line_23_" points="621.8 403.5 649.9 462.5 714.3 449.7" class="st21"/><polygon id="Line_24_" points="650.2 461.4 621.9 527.8 621.9 404.8" class="st22"/><polygon id="Line_25_" points="445.5 296.7 500.4 403.7 416 365.4" class="st23"/><polygon id="Line_26_" points="446 297.1 500.7 326.7 500.7 403.4" class="st24"/><polygon id="Line_27_" points="416.3 190.2 448 204.8 500 190.2" class="st25"/><polygon id="Line_28_" points="447.9 204.9 416 190.2 416 246" class="st26"/><polygon id="Line_29_" points="447.9 204.7 499.9 190.7 468.1 273.5" class="st27"/><polygon id="Line_30_" points="448 205.1 416.3 245.9 468.1 273.6" class="st28"/><polygon id="Line_31_" points="468.3 273 500.5 190.5 500.9 325.7" class="st29"/><polygon id="Line_32_" points="416.4 246.3 445.8 296.7 467.6 273.4" class="st30"/><polygon id="Line_33_" points="445.5 297.1 415.8 366.3 415.8 246.4" class="st31"/><polygon id="Line_34_" points="445.5 296.5 468.5 273.5 500.9 327.1" class="st32"/><polygon id="Line_35_" points="650.5 461.5 715.2 449.9 715.2 527.9" class="st33"/><polygon id="Line_36_" points="622.1 527.5 714.8 527.5 650.2 462" class="st34"/><polygon id="Line_37_" points="249.5 527.5 208.7 500.5 169.7 527.9" class="st35"/><polygon id="Line_38_" points="193.5 440.5 208.5 500.5 169.4 527.7" class="st36"/><polygon id="Line_39_" points="222.5 392.5 193.5 441.5 240.1 470.2" class="st37"/><polygon id="Line-Copy" points="153.9 350.5 172.5 286.5 208.5 352.5" class="st38"/><polygon id="Line_40_" points="161.8 189.5 141.9 228.4 167.3 206.9" class="st39"/><polygon id="Line_41_" points="172.3 287.3 208.3 351.5 167.1 206.7" class="st40"/><polygon id="Line_42_" points="308.8 333.6 357.6 303.7 373.1 366.5" class="st41"/><polygon id="Line_43_" points="348 400.2 373.2 367.1 308.8 333.7" class="st42"/><polygon id="Line_44_" points="347.5 400.5 292.2 363.2 308.7 333.8" class="st43"/><polygon id="Line_45_" points="347.8 400.5 352.2 448.8 293.2 364.3" class="st44"/><polygon id="Line_46_" points="239.5 470.5 208.5 500.1 193.8 441.2" class="st45"/><polygon id="Line_47_" points="47.5 488.5 97.7 458.6 77.8 528" class="st46"/><polygon id="Line_48_" points="80.5 309.5 91.5 346.5 154.9 350.3" class="st41"/><polygon id="Line_49_" points="172.2 287.2 154.3 351.5 80.5 309.5" class="st47"/><polygon id="Line_50_" points="142.5 227.5 128.5 271.5 172.3 286.7" class="st48"/><polygon id="Line_51_" points="142.5 227.2 167.6 207.2 172.3 286.5" class="st49"/><polygon id="Line_52_" points="33.5 394.5 47.6 488.9 .5 526.6" class="st22"/><polygon id="Line_53_" points=".2 528.3 47.5 488.5 77.2 528.3" class="st50"/><polygon id="Line_54_" points="102.5 397.5 125 364.8 98.1 459.5" class="st51"/><polygon id="Line_55_" points="47.5 488.5 102.5 397.5 34.3 395.1" class="st52"/><polygon id="Line_56_" points="47.5 488.5 102.1 398.9 97.9 458.9" class="st53"/><polygon id="Line_57_" points="79.5 309.5 91.5 346.7 33.8 394.6" class="st54"/><polygon id="Line_58_" points="153.5 350.5 125.1 363.8 153.1 467.7" class="st55"/><polygon id="Line_59_" points="193.5 440.5 152.7 466.5 154.2 349.8" class="st56"/><polygon id="Line_60_" points="70.5 245.5 79.5 309.5 33.5 394.2" class="st57"/><polygon id="Line_61_" points="84.3 189.1 142.5 227.5 161.9 189.1" class="st58"/><polygon id="Line_62_" points="71.5 245.5 127.5 271.5 79.4 309.5" class="st59"/><polygon id="Line_63_" points="142.5 227.5 128.5 271.5 71 245.5" class="st60"/><polygon id="Line_64_" points="91.5 346.5 102.2 397.6 124.9 363.8" class="st61"/><polygon id="Line_65_" points="91.5 347.5 102.5 397.4 34.8 395" class="st62"/><polygon id="Line_66_" points="198.5 384.5 193.5 440.5 154.4 350.3" class="st55"/><polygon id="Line_67_" points="246.5 372.5 280.5 409.4 292.4 363.3" class="st63"/><polygon id="Line_68_" points="275.5 301.5 291.9 363.3 246.5 372.2" class="st64"/><polygon id="Line_69_" points="208.5 352.5 198.3 384.6 154.1 350.6" class="st65"/><polygon id="Line_70_" points="198.5 384.5 222.2 392.8 208.7 352.5" class="st66"/><polygon id="Line_71_" points="245.5 372.5 222.5 392.5 280.2 409.7" class="st67"/><polygon id="Line_72_" points="208.5 352.5 245.5 372.5 222.2 392.3" class="st68"/><polygon id="Line_73_" points="198.5 384.5 222.5 392.5 194 440.4" class="st69"/><polygon id="Line_74_" points="152.8 467.1 192.5 441.5 169.6 527.5" class="st70"/><polygon id="Line_75_" points="83.9 189.2 69.8 245.5 142.6 227.4" class="st71"/><polygon id="Line_76_" points="91.5 346.5 125.2 363.9 153.3 350.7" class="st72"/><polygon id="Line_77_" points="128.5 271.5 172.5 286.5 79.9 309" class="st73"/><polygon id="Line_78_" points="222.7 392.4 280.5 409.6 239.6 470.8" class="st74"/><polygon id="Line_79_" points="273.5 260.5 231.7 259.7 249.4 189" class="st75"/><polygon id="Line_80_" points="303.5 235.7 273.5 260.1 249.8 189.6" class="st12"/><polygon id="Line_81_" points="329.1 189.5 303.5 235.5 249.7 188.8" class="st39"/><polygon id="Line_82_" points="303.6 235.4 357.2 302.8 328.9 189" class="st76"/><polygon id="Line_83_" points="232 260.8 275.5 301.5 246.5 371.3" class="st77"/><polygon id="Line_84_" points="231.7 261.5 246.5 372.5 208.4 352.5" class="st78"/><polygon id="Line_85_" points="308.5 333.6 276.5 302.5 292.5 362.9" class="st41"/><polygon id="Line_86_" points="274.5 260.5 232.5 260.5 275.7 301.8" class="st30"/><polygon id="Line_87_" points="292.8 364.7 351.5 448.5 339.5 527.6" class="st4"/><polygon id="Line_88_" points="347.7 400.3 373.5 367.1 399.3 471.8" class="st0"/><polygon id="Line_89_" points="348.1 401.3 351.5 448.5 398.9 472.2" class="st79"/><polygon id="Line_90_" points="339.7 527.9 398.9 472.6 351.5 448.2" class="st80"/><polygon id="Line_91_" points="399.2 472.7 339.8 527.9 413.2 527.9" class="st81"/><polygon id="Line_92_" points="356.5 303.5 275.5 301.5 309.1 333.5" class="st82"/><polygon id="Line_93_" points="275.5 301.5 357 303.4 303.4 235.8" class="st83"/><polygon id="Line_94_" points="303.5 235.5 273.5 260.5 275.5 300.3" class="st84"/><polygon id="Line_95_" points="239.5 471.3 280.4 410.1 249.4 528" class="st85"/><polygon id="Line_96_" points="239.7 470.6 249 527.2 208.7 500.3" class="st86"/></g><polygon id="_x35_" points="47 556.1 131 217 209 217 255.4 376.1 296.5 217 376.2 217 460.3 556.1 386.3 556.1 339.2 396.2 296.5 556.1 216.6 556.1 172.1 396.2 124.8 556.1" class="st87"/><polygon id="_x35__1_" points="462.7 217.7 548 217.7 548 354.4 668.6 354.4 668.6 217.7 762.1 217.7 762.1 555.8 668.6 555.8 668.6 432 548 432 548 555.8 462.7 555.8" class="st87"/><g id="Lines-Copy" transform="translate(47.000000, 29.000000)"><path id="Line_97_" d="M650.3,460.6l-28.4-56.7" class="st88"/><path id="Line_98_" d="M650.5,460.5l-28.7,66" class="st89"/><path id="Line_99_" d="M650.6,461l64.1,65.3" class="st89"/><path id="Line_100_" d="M622,402.9l72.2-41.2" class="st89"/><path id="Line_101_" d="M569.5,358.5l-67.9-32.4" class="st89"/><path id="Line_102_" d="M569.5,358.5l-13.2-32.8" class="st89"/><path id="Line_103_" d="M500.6,402.5l45.9-16" class="st88"/><path id="Line_104_" d="M501.3,326l45.5,60.2" class="st89"/><path id="Line_105_" d="M569.5,358.5L547,386.2" class="st89"/><path id="Line_106_" d="M416.3,245.1l51.7,27.4" class="st89"/><path id="Line_107_" d="M347.5,399.5l-54.9-37" class="st89"/><path id="Line_108_" d="M347.8,399.2l25.3-33.2" class="st89"/><path id="Line_109_" d="M308.5,332.5l64.3,33" class="st89"/><path id="Line_110_" d="M347.7,399.6l51,71.2" class="st89"/><path id="Line_111_" d="M347.6,399.9l4.3,47.7" class="st89"/><path id="Line_112_" d="M351.5,447.5l-58.6-84.4" class="st89"/><path id="Line_113_" d="M351.5,447.5l-11.8,79" class="st89"/><path id="Line_114_" d="M352,447.7l47.1,23.8" class="st89"/><path id="Line_115_" d="M398.9,471.7l-59.2,55.1" class="st89"/><path id="Line_116_" d="M291.9,362.2l-16.4-62.7" class="st89"/><path id="Line_117_" d="M246.5,370.5l29-71" class="st89"/><path id="Line_118_" d="M231.8,259.4l43.7,41.1" class="st89"/><path id="Line_119_" d="M275.5,300.5l28-66" class="st89"/><path id="Line_120_" d="M303.5,234.5l-30,25" class="st89"/><path id="Line_121_" d="M273.5,260.5l2,39" class="st89"/><path id="Line_122_" d="M231.9,259l41.6,0.5" class="st89"/><path id="Line_123_" d="M303.5,234.5l53.5,67.6" class="st89"/><path id="Line_124_" d="M357.3,302.5l-80.8-2" class="st89"/><path id="Line_125_" d="M303.5,234.5l-53.4-46" class="st89"/><path id="Line_126_" d="M249.6,188.5l23.9,71" class="st89"/><path id="Line_127_" d="M303.5,234.5l25.2-45.9" class="st89"/><path id="Line_128_" d="M308.5,332.5l49-29.9" class="st89"/><path id="Line_129_" d="M275.5,300.5l33,32" class="st89"/><path id="Line_130_" d="M292.4,362.1l16.1-29.6" class="st89"/><path id="Line_131_" d="M308.5,332.5l39.2,66.8" class="st89"/><path id="Line_132_" d="M246.1,371.3l45.9-8.7" class="st89"/><path id="Line_133_" d="M102.5,396.5l22.3-33.2" class="st89"/><path id="Line_134_" d="M102.5,396.5l-4.9,61.8" class="st88"/><path id="Line_135_" d="M239.9,469.6l40.3-60.6" class="st89"/><path id="Line_136_" d="M222.5,391.5l57.6,17.3" class="st89"/><path id="Line_137_" d="M246,371.5l34.3,36.8" class="st89"/><path id="Line_138_" d="M246.1,371.4l-14.5-112.2" class="st89"/><path id="Line_139_" d="M33.4,394.3l58.1-48.8" class="st89"/><path id="Line_140_" d="M91.4,345.2L79.8,309" class="st89"/><path id="Line_141_" d="M91.5,345.5l62.4,4" class="st89"/><path id="Line_142_" d="M91.5,345.5l33.7,17.2" class="st89"/><path id="Line_143_" d="M91.5,345.5l11,51" class="st89"/><path id="Line_144_" d="M33.2,394.4l69.3,2.1" class="st88"/><path id="Line_145_" d="M102.5,396.5l-55,91" class="st88"/><path id="Line_146_" d="M47.5,487.5l49.8-29.1" class="st89"/><path id="Line_147_" d="M47.5,487.5l-14.1-93.3" class="st88"/><path id="Line_148_" d="M0.5,526.4l47-38.9" class="st88"/><path id="Line_149_" d="M47.5,487.5l29.9,39.2" class="st88"/><path id="Line_150_" d="M79.5,308.5l-46.3,85.9" class="st89"/><path id="Line_151_" d="M70.9,245l8.6,63.5" class="st89"/><path id="Line_152_" d="M84.4,188.4l58.1,38.1" class="st89"/><path id="Line_153_" d="M71,244.4l71.5-17.9" class="st89"/><path id="Line_154_" d="M128.5,270.5L71,244.6" class="st89"/><path id="Line_155_" d="M79.5,308.5l49-38" class="st89"/><path id="Line_156_" d="M128.5,270.6l43.8,15.2" class="st89"/><path id="Line_157_" d="M142.5,226.5l-14,44" class="st89"/><path id="Line_158_" d="M172.6,286l-92.1,22.5" class="st89"/><path id="Line_159_" d="M153.8,349.2l-74.1-40.7" class="st89"/><path id="Line_160_" d="M161.9,188.3l-19.4,38.2" class="st89"/><path id="Line_161_" d="M172.6,286.2l-29.9-59.5" class="st89"/><path id="Line_162_" d="M125.7,362.5l27.8-13" class="st89"/><path id="Line_163_" d="M153.8,349.5l-0.7,115.9" class="st88"/><polygon id="Line_164_" points="153.9 349.5 172.5 285.5 208.5 351.5" class="st89"/><path id="Line_165_" d="M198.3,383.4l-43.6-33.2L198.3,383.4z" class="st89"/><path id="Line_166_" d="M193.5,440.2l46,29.3" class="st89"/><path id="Line_167_" d="M193.3,439.3L169.8,526" class="st88"/><path id="Line_168_" d="M172.5,285.5l-5.4-79.4" class="st89"/><path id="Line_169_" d="M166.9,206.1l-24.4,20.4" class="st89"/><path id="Line_170_" d="M501.3,325.8l-0.9,77" class="st89"/><path id="Line_171_" d="M547,386.6l74.5,15.9" class="st89"/><path id="Line_172_" d="M569.7,358.5l51.6,43.6" class="st89"/><path id="Line_173_" d="M569.8,358.3l124.7,3.3" class="st89"/><path id="Line_174_" d="M569.6,358.2l51.8-32" class="st89"/><path id="Line_175_" d="M685.7,243.4L622,189.1" class="st89"/><path id="Line_176_" d="M686.5,243.5l28.2-54.5" class="st89"/><path id="Line_177_" d="M685.6,243.8l-38.9,5.9" class="st89"/><path id="Line_178_" d="M646.5,249.5l-24.7,76.3" class="st89"/><path id="Line_179_" d="M646.5,249.5L622.3,189" class="st89"/><path id="Line_180_" d="M622,326l63.8-82.1" class="st89"/><path id="Line_181_" d="M686.4,244.2l28.6,69.9" class="st89"/><path id="Line_182_" d="M621.5,326l93-11.5" class="st89"/><path id="Line_183_" d="M621.6,326.4l72.9,35.1" class="st89"/><path id="Line_184_" d="M694.5,361.5l20-47" class="st89"/><path id="Line_185_" d="M694.6,361.8l20.1,86.2" class="st89"/><path id="Line_186_" d="M714.7,448l-92.7-44.8" class="st89"/><path id="Line_187_" d="M714.7,448.8l-64.2,11.7" class="st89"/><path id="Line_188_" d="M153.4,465.8l40-25.9" class="st89"/><path id="Line_189_" d="M193.5,440.5l-39.1-90.6" class="st89"/><path id="Line_190_" d="M193.6,440.1l28.6-48.3" class="st88"/><path id="Line_191_" d="M193.8,440.5l14.7,59" class="st89"/><path id="Line_192_" d="M208.6,499.3l-38.7,27.2" class="st88"/><path id="Line_193_" d="M208.7,499.3l40.3,27.2" class="st88"/><path id="Line_194_" d="M416.5,526.6l21.4-65.3" class="st89"/><path id="Line_195_" d="M500.4,526.7L438,461.4" class="st89"/><path id="Line_196_" d="M438.3,461.4l40.2,2.2" class="st89"/><path id="Line_197_" d="M478.5,463.5l21.9,62.9" class="st89"/><path id="Line_198_" d="M478.5,463.5l22-60.5" class="st89"/><path id="Line_199_" d="M438,461.1l62.5-58.1" class="st89"/><path id="Line_200_" d="M437.8,460.8l-21.5-96.2" class="st89"/><path id="Line_201_" d="M416.5,364.5l83.7,38.5" class="st89"/><path id="Line_202_" d="M500.6,403.2l-55.1-107.7" class="st89"/><path id="Line_203_" d="M445.2,296.2l-28.8,68" class="st89"/><path id="Line_204_" d="M445.5,295.5l55.3,30.3" class="st89"/><path id="Line_205_" d="M416.2,245.5l29.4,50" class="st89"/><path id="Line_206_" d="M448.1,203.9l-32.2,41" class="st89"/><path id="Line_207_" d="M416.1,189.3l31.4,14.2" class="st89"/><path id="Line_208_" d="M448.5,203.5l51.9-14.3" class="st89"/><path id="Line_209_" d="M448.2,204.1l19.8,68.3" class="st89"/><path id="Line_210_" d="M468.1,272.5l32.4-83.3" class="st89"/><path id="Line_211_" d="M468.1,272.5l32.9,53.1" class="st89"/><path id="Line_212_" d="M445.5,295.8l22.5-23.3" class="st89"/><polygon id="Line_213_" points="193.6 439.9 198.5 383.5 222.2 391.8" class="st89"/><path id="Line_214_" d="M222.5,392.1l17,76.8" class="st88"/><path id="Line_215_" d="M249.1,526.5l-9.6-57" class="st88"/><polyline id="Line_216_" points="198.5 383.5 208.5 351.3 222.2 391.7 245.8 371.3 208.5 351.3" class="st89"/><path id="Line_217_" d="M208.7,499.1l31-29.4" class="st88"/></g></g></g></svg>