<svg xmlns="http://www.w3.org/2000/svg" xmlns:xlink="http://www.w3.org/1999/xlink" width="725" height="349" version="1.1" viewBox="0 0 725 349"><title>logo</title><desc>Created with Sketch.</desc><g id="Page-1" fill="none" fill-rule="evenodd" stroke="none" stroke-width="1"><g id="TempLogo" transform="translate(-42.000000, -24.000000)"><g id="Group-3" transform="translate(47.000000, 28.000000)"><polygon id="Line" fill="#2C4369" points="416.44 177.673 437.826 274.063 500.646 216.163"/><polygon id="Line" fill="#1C2F52" points="438.5 274.5 415.945 339.71 415.945 176.943"/><polygon id="Line" fill="#0A1939" points="437.916 274.413 416.264 339.801 500.752 339.801"/><polygon id="Line" fill="#0F1F40" points="437.983 274.171 478.456 276.793 500.418 339.283"/><polygon id="Line" fill="#1D3154" points="500.09 216.597 478.548 276.898 438.054 274.197"/><polygon id="Line" fill="#162849" points="478.5 276.5 501.055 339.486 501.055 215.969"/><polygon id="Line" fill="#3F5A84" points="501.93 139.247 500.557 215.612 546.811 199.681"/><polygon id="Line" fill="#324A71" points="546.977 199.537 500.596 215.848 621.038 215.848"/><polygon id="Line" fill="#39537C" points="570.007 171.787 546.511 199.558 621.95 215.356"/><polygon id="Line" fill="#46638F" points="501.041 139.082 547.641 199.181 569.575 171.522"/><polygon id="Line" fill="#51719E" points="500.252 138.5 556.5 138.5 569.634 171.591"/><polygon id="Line" fill="#51719E" points="621.721 138.5 569.5 171.5 556.443 138.5"/><polygon id="Line" fill="#86B2EA" points="622.594 1.952 686.356 57.082 714.567 1.952"/><polygon id="Line" fill="#81ABE2" points="686.5 56.5 646.66 62.578 622.343 2.811"/><polygon id="Line" fill="#78A0D6" points="714.5 2.5 686.045 57.606 715.124 126.989"/><polygon id="Line" fill="#769ED3" points="646.368 62.868 621.5 138.5 621.5 2.297"/><polygon id="Line" fill="#7096CA" points="685.5 56.5 646.5 62.5 622.347 138.09"/><polygon id="Line" fill="#6589BB" points="715.208 127.365 686.354 56.863 621.899 138.887"/><polygon id="Line" fill="#52719F" points="714.756 127.479 621.664 139.482 694.706 174.462"/><polygon id="Line" fill="#4A6894" points="621.5 139.5 570.536 171.26 694.567 174.724"/><polygon id="Line" fill="#3D5882" points="569.162 171.148 693.5 174.5 622.481 216.649"/><polygon id="Line" fill="#3D5882" points="714.5 128.5 694.343 174.905 715.261 261.461"/><polygon id="Line" fill="#2E466D" points="694.5 174.5 714.954 262.385 623.163 215.985"/><polygon id="Line" fill="#1F3356" points="621.834 215.527 649.88 274.542 714.271 261.692"/><polygon id="Line" fill="#16284A" points="650.174 273.414 621.881 339.807 621.881 216.805"/><polygon id="Line" fill="#486591" points="445.47 108.708 500.443 215.708 416.049 177.365"/><polygon id="Line" fill="#4F6E9B" points="445.987 109.056 500.731 138.684 500.731 215.447"/><polygon id="Line" fill="#89B5ED" points="416.277 2.152 448.001 16.759 499.95 2.152"/><polygon id="Line" fill="#85B0E8" points="447.882 16.856 416.005 2.235 416.005 58.024"/><polygon id="Line" fill="#82ADE4" points="447.946 16.716 499.897 2.733 468.081 85.497"/><polygon id="Line" fill="#7DA6DC" points="447.955 17.084 416.256 57.947 468.139 85.571"/><polygon id="Line" fill="#749BD0" points="468.294 85.039 500.5 2.5 500.905 137.682"/><polygon id="Line" fill="#7097CB" points="416.385 58.278 445.798 108.652 467.643 85.388"/><polygon id="Line" fill="#6184B5" points="445.526 109.133 415.818 178.3 415.818 58.368"/><polygon id="Line" fill="#6386B8" points="445.5 108.5 468.5 85.5 500.899 139.11"/><polygon id="Line" fill="#102142" points="650.5 273.5 715.233 261.901 715.233 339.868"/><polygon id="Line" fill="#0A1A39" points="622.068 339.5 714.824 339.5 650.198 274.011"/><polygon id="Line" fill="#081736" points="249.5 339.5 208.735 312.475 169.666 339.872"/><polygon id="Line" fill="#0E1F3F" points="193.5 252.5 208.5 312.5 169.41 339.682"/><polygon id="Line" fill="#21365A" points="222.5 204.5 193.5 253.5 240.146 282.169"/><polygon id="Line-Copy" fill="#5676A5" points="153.925 162.49 172.5 98.5 208.505 164.479"/><polygon id="Line" fill="#87B3EC" points="161.787 1.482 141.86 40.36 167.281 18.941"/><polygon id="Line" fill="#6C92C5" points="172.259 99.255 208.267 163.452 167.096 18.68"/><polygon id="Line" fill="#5373A1" points="308.815 145.601 357.561 115.673 373.118 178.516"/><polygon id="Line" fill="#435F8A" points="347.994 212.213 373.189 179.079 308.766 145.658"/><polygon id="Line" fill="#425E89" points="347.5 212.5 292.166 175.166 308.728 145.796"/><polygon id="Line" fill="#30476E" points="347.762 212.478 352.155 260.807 293.215 176.303"/><polygon id="Line" fill="#142547" points="239.5 282.5 208.466 312.071 193.791 253.218"/><polygon id="Line" fill="#0B1A3A" points="47.5 300.5 97.668 270.627 77.778 339.979"/><polygon id="Line" fill="#5373A1" points="80.5 121.5 91.5 158.5 154.865 162.345"/><polygon id="Line" fill="#5D7FAF" points="172.179 99.16 154.25 163.515 80.504 121.542"/><polygon id="Line" fill="#769DD3" points="142.5 39.5 128.5 83.5 172.343 98.695"/><polygon id="Line" fill="#7EA8DF" points="142.486 39.195 167.603 19.191 172.322 98.542"/><polygon id="Line" fill="#16284A" points="33.5 206.5 47.572 300.897 .473 338.625"/><polygon id="Line" fill="#091837" points=".174 340.259 47.5 300.5 77.215 340.259"/><polygon id="Line" fill="#2F466D" points="102.5 209.5 125.021 176.767 98.132 271.505"/><polygon id="Line" fill="#263C61" points="47.5 300.5 102.5 209.5 34.279 207.08"/><polygon id="Line" fill="#1D3053" points="47.5 300.5 102.085 210.87 97.91 270.934"/><polygon id="Line" fill="#4B6995" points="79.5 121.5 91.515 158.735 33.811 206.617"/><polygon id="Line" fill="#364F77" points="153.5 162.5 125.117 175.814 153.1 279.743"/><polygon id="Line" fill="#2A4166" points="193.5 252.5 152.701 278.474 154.153 161.827"/><polygon id="Line" fill="#5B7DAD" points="70.5 57.5 79.5 121.5 33.517 206.205"/><polygon id="Line" fill="#88B4ED" points="84.324 1.088 142.5 39.5 161.92 1.088"/><polygon id="Line" fill="#6F96CA" points="71.5 57.5 127.5 83.5 79.425 121.509"/><polygon id="Line" fill="#7BA4DB" points="142.5 39.5 128.5 83.5 71.042 57.503"/><polygon id="Line" fill="#415D88" points="91.5 158.5 102.211 209.648 124.917 175.821"/><polygon id="Line" fill="#3C5781" points="91.5 159.5 102.54 209.354 34.757 206.973"/><polygon id="Line" fill="#364F77" points="198.5 196.5 193.5 252.5 154.363 162.303"/><polygon id="Line" fill="#3A547D" points="246.5 184.5 280.494 221.428 292.45 175.346"/><polygon id="Line" fill="#4D6B98" points="275.5 113.5 291.906 175.284 246.533 184.163"/><polygon id="Line" fill="#44608B" points="208.5 164.5 198.295 196.621 154.057 162.558"/><polygon id="Line" fill="#3E5983" points="198.5 196.5 222.248 204.834 208.687 164.52"/><polygon id="Line" fill="#365078" points="245.5 184.5 222.5 204.5 280.224 221.661"/><polygon id="Line" fill="#405B85" points="208.5 164.5 245.5 184.5 222.151 204.269"/><polygon id="Line" fill="#30486F" points="198.5 196.5 222.5 204.5 194.017 252.432"/><polygon id="Line" fill="#122445" points="152.848 279.096 192.5 253.5 169.649 339.451"/><polygon id="Line" fill="#83AEE6" points="83.939 1.184 69.789 57.529 142.648 39.351"/><polygon id="Line" fill="#496793" points="91.5 158.5 125.213 175.904 153.323 162.666"/><polygon id="Line" fill="#6A8FC1" points="128.5 83.5 172.5 98.5 79.917 120.962"/><polygon id="Line" fill="#273C62" points="222.687 204.447 280.53 221.639 239.558 282.75"/><polygon id="Line" fill="#7FA8DF" points="273.5 72.5 231.729 71.739 249.402 .951"/><polygon id="Line" fill="#81ABE2" points="303.495 47.659 273.522 72.086 249.801 1.615"/><polygon id="Line" fill="#87B3EC" points="329.063 1.529 303.5 47.5 249.748 .823"/><polygon id="Line" fill="#7CA5DB" points="303.563 47.358 357.209 114.761 328.947 1.012"/><polygon id="Line" fill="#5F82B2" points="232.042 72.796 275.5 113.5 246.484 183.271"/><polygon id="Line" fill="#5778A7" points="231.659 73.457 246.5 184.5 208.354 164.51"/><polygon id="Line" fill="#5373A1" points="308.546 145.567 276.5 114.5 292.5 174.928"/><polygon id="Line" fill="#7097CB" points="274.5 72.5 232.5 72.5 275.742 113.847"/><polygon id="Line" fill="#1D3154" points="292.814 176.689 351.5 260.5 339.48 339.644"/><polygon id="Line" fill="#2C4369" points="347.695 212.299 373.478 179.069 399.26 283.824"/><polygon id="Line" fill="#203458" points="348.099 213.346 351.5 260.5 398.932 284.246"/><polygon id="Line" fill="#102141" points="339.651 339.919 398.947 284.556 351.5 260.24"/><polygon id="Line" fill="#091938" points="399.243 284.717 339.81 339.886 413.223 339.886"/><polygon id="Line" fill="#5E80B0" points="356.5 115.5 275.5 113.5 309.098 145.505"/><polygon id="Line" fill="#6E94C7" points="275.534 113.516 357.003 115.408 303.4 47.75"/><polygon id="Line" fill="#749BCF" points="303.5 47.5 273.5 72.5 275.54 112.32"/><polygon id="Line" fill="#182A4C" points="239.541 283.304 280.401 222.141 249.433 340.002"/><polygon id="Line" fill="#0B1B3B" points="239.709 282.619 249.034 339.24 208.684 312.34"/></g><polygon id="5" stroke="#FFF" stroke-width="5" points="47.049 368.115 130.999 29 209.024 29 255.393 188.105 296.484 29 376.244 29 460.273 368.115 386.295 368.115 339.188 208.249 296.484 368.115 216.583 368.115 172.115 208.249 124.848 368.115"/><polygon id="5" stroke="#FFF" stroke-width="5" points="462.701 29.746 547.996 29.746 547.996 166.422 668.617 166.422 668.617 29.746 762.13 29.746 762.13 367.781 668.617 367.781 668.617 244.007 547.996 244.007 547.996 367.781 462.701 367.781"/><g id="Lines-Copy" stroke-linecap="square" stroke-width="2" transform="translate(47.000000, 29.000000)"><path id="Line" stroke="snow" d="M650.297491,272.581198 L621.864736,215.87359"/><path id="Line" stroke="#FFF" d="M650.5,272.5 L621.824718,338.472534"/><path id="Line" stroke="#FFF" d="M650.558466,272.953143 L714.668857,338.245135"/><path id="Line" stroke="#FFF" d="M622.019567,214.896795 L694.173428,173.692021"/><path id="Line" stroke="#FFF" d="M569.5,170.5 L501.643646,138.07259"/><path id="Line" stroke="#FFF" d="M569.5,170.5 L556.289699,137.687594"/><path id="Line" stroke="snow" d="M500.574817,214.532566 L546.5,198.5"/><path id="Line" stroke="#FFF" d="M501.297367,137.957527 L546.834879,198.179876"/><path id="Line" stroke="#FFF" d="M569.5,170.5 L547.020852,198.236896"/><path id="Line" stroke="#FFF" d="M416.282944,57.077181 L467.984689,84.4563139"/><path id="Line" stroke="#FFF" d="M347.5,211.5 L292.586663,174.471802"/><path id="Line" stroke="#FFF" d="M347.799275,211.239007 L373.133261,178.037954"/><path id="Line" stroke="#FFF" d="M308.5,144.5 L372.820628,177.522011"/><path id="Line" stroke="#FFF" d="M347.747613,211.641115 L398.776322,282.813571"/><path id="Line" stroke="#FFF" d="M347.633759,211.899918 L351.894155,259.589041"/><path id="Line" stroke="#FFF" d="M351.5,259.5 L292.933712,175.139217"/><path id="Line" stroke="#FFF" d="M351.5,259.5 L339.676394,338.546202"/><path id="Line" stroke="#FFF" d="M352.041418,259.663821 L399.165737,283.478732"/><path id="Line" stroke="#FFF" d="M398.941856,283.72552 L339.761971,338.818058"/><path id="Line" stroke="#FFF" d="M291.887084,174.224171 L275.5,111.5"/><path id="Line" stroke="#FFF" d="M246.5,182.5 L275.5,111.5"/><path id="Line" stroke="#FFF" d="M231.84842,71.3921623 L275.5,112.5"/><path id="Line" stroke="#FFF" d="M275.5,112.5 L303.5,46.5"/><path id="Line" stroke="#FFF" d="M303.5,46.5 L273.5,71.5"/><path id="Line" stroke="#FFF" d="M273.5,72.5 L275.5,111.5"/><path id="Line" stroke="#FFF" d="M231.902305,70.9524576 L273.5,71.5"/><path id="Line" stroke="#FFF" d="M303.5,46.5 L356.999838,114.08351"/><path id="Line" stroke="#FFF" d="M357.250129,114.470258 L276.5,112.5"/><path id="Line" stroke="#FFF" d="M303.5,46.5 L250.110297,0.549163342"/><path id="Line" stroke="#FFF" d="M249.621976,0.545092002 L273.5,71.5"/><path id="Line" stroke="#FFF" d="M303.5,46.5 L328.724048,0.565688194"/><path id="Line" stroke="#FFF" d="M308.5,144.5 L357.46483,114.586542"/><path id="Line" stroke="#FFF" d="M275.5,112.5 L308.5,144.5"/><path id="Line" stroke="#FFF" d="M292.406652,174.083999 L308.5,144.5"/><path id="Line" stroke="#FFF" d="M308.5,144.5 L347.696116,211.330814"/><path id="Line" stroke="#FFF" d="M246.094201,183.308368 L292.000391,174.571768"/><path id="Line" stroke="#FFF" d="M102.5,208.5 L124.842365,175.283942"/><path id="Line" stroke="snow" d="M102.5,208.5 L97.6292984,270.306439"/><path id="Line" stroke="#FFF" d="M239.870334,281.610352 L280.166695,221.032981"/><path id="Line" stroke="#FFF" d="M222.5,203.5 L280.136149,220.758489"/><path id="Line" stroke="#FFF" d="M246.009766,183.511869 L280.289933,220.309147"/><path id="Line" stroke="#FFF" d="M246.052284,183.432242 L231.508583,71.2779253"/><path id="Line" stroke="#FFF" d="M33.3608394,206.33848 L91.5,157.5"/><path id="Line" stroke="#FFF" d="M91.4454462,157.156767 L79.8398868,121.031022"/><path id="Line" stroke="#FFF" d="M91.5,157.5 L153.908203,161.456055"/><path id="Line" stroke="#FFF" d="M91.5,157.5 L125.249307,174.685081"/><path id="Line" stroke="#FFF" d="M91.5,157.5 L102.5,208.5"/><path id="Line" stroke="snow" d="M33.1569385,206.379192 L102.5,208.5"/><path id="Line" stroke="snow" d="M102.5,208.5 L47.5,299.5"/><path id="Line" stroke="#FFF" d="M47.5,299.5 L97.3072153,270.427032"/><path id="Line" stroke="snow" d="M47.5,299.5 L33.3628921,206.18658"/><path id="Line" stroke="snow" d="M0.53861742,338.424155 L47.5,299.5"/><path id="Line" stroke="snow" d="M47.5,299.5 L77.3948716,338.691689"/><path id="Line" stroke="#FFF" d="M79.5,120.5 L33.1925185,206.430851"/><path id="Line" stroke="#FFF" d="M70.9429977,57.0212952 L79.5,120.5"/><path id="Line" stroke="#FFF" d="M84.4188455,0.408535815 L142.5,38.5"/><path id="Line" stroke="#FFF" d="M70.99179,56.3899937 L142.5,38.5"/><path id="Line" stroke="#FFF" d="M128.5,82.5 L70.9664398,56.6007001"/><path id="Line" stroke="#FFF" d="M79.5,120.5 L128.5,82.5"/><path id="Line" stroke="#FFF" d="M128.484131,82.5705566 L172.29248,97.7719727"/><path id="Line" stroke="#FFF" d="M142.5,38.5 L128.5,82.5"/><path id="Line" stroke="#FFF" d="M172.58252,97.9638672 L80.5,120.5"/><path id="Line" stroke="#FFF" d="M153.83252,161.219238 L79.7471704,120.546744"/><path id="Line" stroke="#FFF" d="M161.859775,0.309322311 L142.5,38.5"/><path id="Line" stroke="#FFF" d="M172.600098,98.1953125 L142.661133,38.6733398"/><path id="Line" stroke="#FFF" d="M125.744353,174.5252 L153.5,161.5"/><path id="Line" stroke="snow" d="M153.813151,161.499349 L153.141771,277.424871"/><polygon id="Line" stroke="#FFF" points="153.925 161.49 172.5 97.5 208.505 163.479"/><path id="Line" stroke="#FFF" d="M198.307292,195.44987 L154.684896,162.236979 L198.307292,195.44987 Z"/><path id="Line" stroke="#FFF" d="M193.530273,252.206055 L239.5,281.5"/><path id="Line" stroke="snow" d="M193.309186,251.308421 L169.82071,337.975112"/><path id="Line" stroke="#FFF" d="M172.5,97.5 L167.141394,18.1152522"/><path id="Line" stroke="#FFF" d="M166.926164,18.1396996 L142.5,38.5"/><path id="Line" stroke="#FFF" d="M501.310455,137.822833 L500.393038,214.804136"/><path id="Line" stroke="#FFF" d="M547.025677,198.601384 L621.5,214.5"/><path id="Line" stroke="#FFF" d="M569.651174,170.549347 L621.257693,214.155536"/><path id="Line" stroke="#FFF" d="M569.750739,170.296267 L694.489669,173.638072"/><path id="Line" stroke="#FFF" d="M569.626173,170.210737 L621.448052,138.233099"/><path id="Line" stroke="#FFF" d="M685.709043,55.3866909 L622.032934,1.05700243"/><path id="Line" stroke="#FFF" d="M686.5,55.5 L714.652871,1.04098253"/><path id="Line" stroke="#FFF" d="M685.64983,55.7906549 L646.773222,61.6465988"/><path id="Line" stroke="#FFF" d="M646.5,61.5 L621.789294,137.82431"/><path id="Line" stroke="#FFF" d="M646.5,61.5 L622.307645,0.99648281"/><path id="Line" stroke="#FFF" d="M622.012988,137.984404 L685.816065,55.9296958"/><path id="Line" stroke="#FFF" d="M686.395913,56.2314626 L714.966602,126.168237"/><path id="Line" stroke="#FFF" d="M621.461649,138.022125 L714.5,126.5"/><path id="Line" stroke="#FFF" d="M621.58183,138.35942 L694.5,173.5"/><path id="Line" stroke="#FFF" d="M694.5,173.5 L714.5,126.5"/><path id="Line" stroke="#FFF" d="M694.623885,173.795534 L714.767262,259.966641"/><path id="Line" stroke="#FFF" d="M714.743566,260.049948 L622.082728,215.256459"/><path id="Line" stroke="#FFF" d="M714.68217,260.816676 L650.5,272.5"/><path id="Line" stroke="#FFF" d="M153.362041,277.780965 L193.362827,251.861583"/><path id="Line" stroke="#FFF" d="M193.5,252.5 L154.350237,161.858329"/><path id="Line" stroke="snow" d="M193.565234,252.123687 L222.148498,203.779441"/><path id="Line" stroke="#FFF" d="M193.760395,252.514233 L208.5,311.5"/><path id="Line" stroke="snow" d="M208.610853,311.315865 L169.943795,338.482572"/><path id="Line" stroke="snow" d="M208.651245,311.308533 L248.93261,338.513831"/><path id="Line" stroke="#FFF" d="M416.460222,338.647053 L437.899778,273.32773"/><path id="Line" stroke="#FFF" d="M500.441214,338.694479 L438.008888,273.374213"/><path id="Line" stroke="#FFF" d="M438.260653,273.361055 L478.448718,275.592287"/><path id="Line" stroke="#FFF" d="M478.5,275.5 L500.388318,338.366741"/><path id="Line" stroke="#FFF" d="M478.5,275.5 L500.493564,214.985727"/><path id="Line" stroke="#FFF" d="M438.000555,273.148765 L500.475569,215.062618"/><path id="Line" stroke="#FFF" d="M437.781247,272.843051 L416.313482,176.663308"/><path id="Line" stroke="#FFF" d="M416.5,176.5 L500.18764,215.030444"/><path id="Line" stroke="#FFF" d="M500.640256,215.158049 L445.5,107.5"/><path id="Line" stroke="#FFF" d="M445.205239,108.175277 L416.376739,176.201421"/><path id="Line" stroke="#FFF" d="M445.5,107.5 L500.803852,137.778662"/><path id="Line" stroke="#FFF" d="M416.200601,57.5008953 L445.559639,107.513846"/><path id="Line" stroke="#FFF" d="M448.07641,15.8508456 L415.919215,56.8912266"/><path id="Line" stroke="#FFF" d="M416.081175,1.27886533 L447.5,15.5"/><path id="Line" stroke="#FFF" d="M448.5,15.5 L500.368141,1.22596922"/><path id="Line" stroke="#FFF" d="M448.222907,16.0526083 L468.048727,84.3260454"/><path id="Line" stroke="#FFF" d="M468.10794,84.4927189 L500.503926,1.17689034"/><path id="Line" stroke="#FFF" d="M468.061885,84.542721 L501.007257,137.685958"/><path id="Line" stroke="#FFF" d="M445.465337,107.801577 L467.924599,84.5115793"/><polygon id="Line" stroke="#FFF" points="193.555 251.913 198.5 195.5 222.203 203.774"/><path id="Line" stroke="snow" d="M222.463281,204.070703 L239.422114,280.856828"/><path id="Line" stroke="snow" d="M249.137619,338.468556 L239.5,281.5"/><polyline id="Line" stroke="#FFF" points="198.5 195.5 208.475 163.279 222.199 203.666 245.752 183.277 208.475 163.279"/><path id="Line" stroke="snow" d="M208.680628,311.116637 L239.727539,281.682129"/></g></g></g></svg>